<svg version="1.1" id="Layer_1" xmlns="http://www.w3.org/2000/svg" xmlns:xlink="http://www.w3.org/1999/xlink" x="0px" y="0px"
	 width="40" viewBox="0 0 1080 1080" enable-background="new 0 0 1080 1080" xml:space="preserve">
<path fill="#D80721" opacity="1.000000" stroke="none" 
	d="
M476.000000,1081.000000 
	C317.351593,1081.000000 159.203171,1081.000000 1.027377,1081.000000 
	C1.027377,721.059814 1.027377,361.119598 1.027377,1.089690 
	C360.898651,1.089690 720.797363,1.089690 1080.848022,1.089690 
	C1080.848022,360.999939 1080.848022,720.999939 1080.848022,1081.000000 
	C879.452454,1081.000000 677.976257,1081.000000 476.000000,1081.000000 
M176.472290,648.251526 
	C179.526123,655.426086 182.195267,662.794556 185.696564,669.743652 
	C207.537766,713.092224 242.444656,740.325745 289.435699,751.470886 
	C316.275452,757.836731 343.548035,758.570801 370.600311,751.772827 
	C391.827850,746.438538 411.417694,737.703613 427.944794,722.957031 
	C429.821472,721.282532 431.590027,719.486877 433.408722,717.747437 
	C434.598633,722.031677 434.475555,725.814880 434.621002,729.587708 
	C435.118958,742.506531 441.502838,748.653687 454.463104,748.689331 
	C471.460083,748.736023 488.457428,748.749878 505.454376,748.702209 
	C519.543579,748.662659 525.784790,742.368652 525.787781,728.154114 
	C525.809143,627.504517 525.812683,526.854858 525.794800,426.205231 
	C525.792236,411.835083 519.061951,405.176666 504.613708,405.143036 
	C488.449890,405.105408 472.285828,405.111664 456.122009,405.146088 
	C441.438690,405.177338 434.662842,411.926666 434.593231,426.509003 
	C434.575500,430.224518 434.590607,433.940155 434.590607,437.973816 
	C433.263245,437.532074 432.902008,437.516602 432.705627,437.328796 
	C431.745178,436.409943 430.810974,435.461853 429.899475,434.493988 
	C421.481201,425.555359 411.576355,418.655884 400.684570,413.086365 
	C381.056000,403.049286 360.104980,398.694641 338.185577,398.140289 
	C309.641754,397.418396 281.954193,401.501984 256.318420,414.472687 
	C207.629211,439.107452 180.329010,480.075287 168.826736,532.368958 
	C164.918106,550.139099 163.716660,568.306824 164.608368,586.512756 
	C165.629913,607.369019 168.849945,627.853516 176.472290,648.251526 
M806.211182,568.500488 
	C806.210083,541.837830 806.194275,515.175171 806.218689,488.512482 
	C806.224548,482.162079 806.650452,481.813599 813.069092,481.814270 
	C827.234192,481.815735 841.399902,481.895111 855.564087,481.779724 
	C866.799194,481.688202 873.157104,475.180237 873.173767,464.011200 
	C873.196411,448.846252 873.186768,433.681244 873.176392,418.516266 
	C873.168274,406.601746 867.016785,400.290649 855.087952,400.211243 
	C840.756836,400.115814 826.422791,400.061066 812.094116,400.269379 
	C807.749023,400.332520 805.890869,398.811737 806.199463,394.509644 
	C806.318420,392.851868 806.213989,391.178131 806.213623,389.511688 
	C806.209106,368.680695 806.261841,347.849457 806.177002,327.018799 
	C806.134033,316.482819 800.664368,309.111755 791.511414,308.915222 
	C771.029053,308.475464 750.528381,308.655670 730.039124,308.905212 
	C724.076904,308.977814 719.660156,312.472321 717.418274,317.999725 
	C716.325989,320.692810 715.699036,323.766144 715.680115,326.672668 
	C715.536743,348.669189 715.577698,370.667053 715.603271,392.664459 
	C715.612000,400.179779 715.666931,400.171143 708.407776,400.174591 
	C702.742004,400.177277 697.072998,400.090485 691.411072,400.246521 
	C681.491882,400.519806 675.028259,406.691803 674.907410,416.482758 
	C674.705811,432.811676 674.707458,449.146576 674.905029,465.475586 
	C675.024353,475.329895 681.401123,481.488647 691.351257,481.784393 
	C697.178711,481.957642 703.015320,481.825562 708.847778,481.826935 
	C715.670532,481.828491 715.632996,481.826599 715.629700,488.786652 
	C715.600647,550.612793 715.336121,612.440857 715.812805,674.263123 
	C715.892273,684.563416 717.932922,695.280212 721.291260,705.039246 
	C729.901306,730.059204 749.803528,742.169128 774.480347,747.271545 
	C800.267395,752.603516 826.451355,752.494019 852.616394,751.382202 
	C863.105591,750.936584 870.544861,744.006775 870.835144,733.867126 
	C871.283264,718.216370 871.179382,702.539856 870.886658,686.882141 
	C870.747925,679.464233 866.347046,673.991699 859.208130,672.729126 
	C852.057678,671.464661 844.665100,671.643188 837.419922,670.824158 
	C824.747375,669.391602 814.396301,664.079163 811.075562,650.846863 
	C808.630310,641.103027 806.853882,631.000061 806.418213,620.985901 
	C805.672913,603.853516 806.211182,586.665283 806.211182,568.500488 
M559.066895,448.500000 
	C559.066895,537.326416 559.066467,626.152832 559.067810,714.979248 
	C559.067871,719.645508 558.954956,724.316101 559.114746,728.977112 
	C559.587402,742.761353 565.621826,748.659363 579.331787,748.703369 
	C596.996887,748.760132 614.662537,748.774658 632.327393,748.693054 
	C644.452637,748.637024 651.403076,741.810242 651.406067,729.875488 
	C651.431702,628.050110 651.422791,526.224731 651.387268,424.399323 
	C651.383362,413.183685 644.853638,406.590820 633.756531,406.544952 
	C614.591980,406.465698 595.427002,406.485168 576.262207,406.508942 
	C567.295593,406.520050 561.000793,411.212860 560.009216,420.095245 
	C558.998169,429.152344 559.325562,438.358887 559.066895,448.500000 
M591.910706,368.534119 
	C593.063965,368.697632 594.220154,368.842712 595.369995,369.027435 
	C615.381104,372.242157 632.428345,366.783844 645.043640,350.667236 
	C657.377502,334.910217 659.314697,316.987152 651.385498,298.937195 
	C643.414856,280.792816 628.656311,270.640228 608.716370,269.026215 
	C585.377502,267.137085 561.809692,282.985199 555.922668,304.089203 
	C547.886719,332.897064 562.110840,358.901550 591.910706,368.534119 
z"/>
<path fill="#FEFCFC" opacity="1.000000" stroke="none" 
	d="
M176.296265,647.901855 
	C168.849945,627.853516 165.629913,607.369019 164.608368,586.512756 
	C163.716660,568.306824 164.918106,550.139099 168.826736,532.368958 
	C180.329010,480.075287 207.629211,439.107452 256.318420,414.472687 
	C281.954193,401.501984 309.641754,397.418396 338.185577,398.140289 
	C360.104980,398.694641 381.056000,403.049286 400.684570,413.086365 
	C411.576355,418.655884 421.481201,425.555359 429.899475,434.493988 
	C430.810974,435.461853 431.745178,436.409943 432.705627,437.328796 
	C432.902008,437.516602 433.263245,437.532074 434.590607,437.973816 
	C434.590607,433.940155 434.575500,430.224518 434.593231,426.509003 
	C434.662842,411.926666 441.438690,405.177338 456.122009,405.146088 
	C472.285828,405.111664 488.449890,405.105408 504.613708,405.143036 
	C519.061951,405.176666 525.792236,411.835083 525.794800,426.205231 
	C525.812683,526.854858 525.809143,627.504517 525.787781,728.154114 
	C525.784790,742.368652 519.543579,748.662659 505.454376,748.702209 
	C488.457428,748.749878 471.460083,748.736023 454.463104,748.689331 
	C441.502838,748.653687 435.118958,742.506531 434.621002,729.587708 
	C434.475555,725.814880 434.598633,722.031677 433.408722,717.747437 
	C431.590027,719.486877 429.821472,721.282532 427.944794,722.957031 
	C411.417694,737.703613 391.827850,746.438538 370.600311,751.772827 
	C343.548035,758.570801 316.275452,757.836731 289.435699,751.470886 
	C242.444656,740.325745 207.537766,713.092224 185.696564,669.743652 
	C182.195267,662.794556 179.526123,655.426086 176.296265,647.901855 
M337.700623,673.049622 
	C351.233246,673.754639 364.567596,673.061951 377.704742,669.109619 
	C407.562195,660.126770 425.899689,639.958435 434.205902,610.557739 
	C440.146637,589.529846 440.237335,568.153992 434.754578,546.874573 
	C428.267578,521.697693 413.879639,502.544891 390.899994,490.250366 
	C372.950623,480.647156 353.559692,479.065460 333.660278,481.114655 
	C302.970184,484.274994 280.227814,499.523529 266.075653,526.791565 
	C253.505859,551.010681 252.243393,576.840149 257.709381,603.165222 
	C265.706848,641.682190 297.587372,669.751953 337.700623,673.049622 
z"/>
<path fill="#FFFCFC" opacity="1.000000" stroke="none" 
	d="
M806.210754,569.000488 
	C806.211182,586.665283 805.672913,603.853516 806.418213,620.985901 
	C806.853882,631.000061 808.630310,641.103027 811.075562,650.846863 
	C814.396301,664.079163 824.747375,669.391602 837.419922,670.824158 
	C844.665100,671.643188 852.057678,671.464661 859.208130,672.729126 
	C866.347046,673.991699 870.747925,679.464233 870.886658,686.882141 
	C871.179382,702.539856 871.283264,718.216370 870.835144,733.867126 
	C870.544861,744.006775 863.105591,750.936584 852.616394,751.382202 
	C826.451355,752.494019 800.267395,752.603516 774.480347,747.271545 
	C749.803528,742.169128 729.901306,730.059204 721.291260,705.039246 
	C717.932922,695.280212 715.892273,684.563416 715.812805,674.263123 
	C715.336121,612.440857 715.600647,550.612793 715.629700,488.786652 
	C715.632996,481.826599 715.670532,481.828491 708.847778,481.826935 
	C703.015320,481.825562 697.178711,481.957642 691.351257,481.784393 
	C681.401123,481.488647 675.024353,475.329895 674.905029,465.475586 
	C674.707458,449.146576 674.705811,432.811676 674.907410,416.482758 
	C675.028259,406.691803 681.491882,400.519806 691.411072,400.246521 
	C697.072998,400.090485 702.742004,400.177277 708.407776,400.174591 
	C715.666931,400.171143 715.612000,400.179779 715.603271,392.664459 
	C715.577698,370.667053 715.536743,348.669189 715.680115,326.672668 
	C715.699036,323.766144 716.325989,320.692810 717.418274,317.999725 
	C719.660156,312.472321 724.076904,308.977814 730.039124,308.905212 
	C750.528381,308.655670 771.029053,308.475464 791.511414,308.915222 
	C800.664368,309.111755 806.134033,316.482819 806.177002,327.018799 
	C806.261841,347.849457 806.209106,368.680695 806.213623,389.511688 
	C806.213989,391.178131 806.318420,392.851868 806.199463,394.509644 
	C805.890869,398.811737 807.749023,400.332520 812.094116,400.269379 
	C826.422791,400.061066 840.756836,400.115814 855.087952,400.211243 
	C867.016785,400.290649 873.168274,406.601746 873.176392,418.516266 
	C873.186768,433.681244 873.196411,448.846252 873.173767,464.011200 
	C873.157104,475.180237 866.799194,481.688202 855.564087,481.779724 
	C841.399902,481.895111 827.234192,481.815735 813.069092,481.814270 
	C806.650452,481.813599 806.224548,482.162079 806.218689,488.512482 
	C806.194275,515.175171 806.210083,541.837830 806.210754,569.000488 
z"/>
<path fill="#FFFCFC" opacity="1.000000" stroke="none" 
	d="
M559.066895,448.000000 
	C559.325562,438.358887 558.998169,429.152344 560.009216,420.095245 
	C561.000793,411.212860 567.295593,406.520050 576.262207,406.508942 
	C595.427002,406.485168 614.591980,406.465698 633.756531,406.544952 
	C644.853638,406.590820 651.383362,413.183685 651.387268,424.399323 
	C651.422791,526.224731 651.431702,628.050110 651.406067,729.875488 
	C651.403076,741.810242 644.452637,748.637024 632.327393,748.693054 
	C614.662537,748.774658 596.996887,748.760132 579.331787,748.703369 
	C565.621826,748.659363 559.587402,742.761353 559.114746,728.977112 
	C558.954956,724.316101 559.067871,719.645508 559.067810,714.979248 
	C559.066467,626.152832 559.066895,537.326416 559.066895,448.000000 
z"/>
<path fill="#FEFAFA" opacity="1.000000" stroke="none" 
	d="
M591.500061,368.457336 
	C562.110840,358.901550 547.886719,332.897064 555.922668,304.089203 
	C561.809692,282.985199 585.377502,267.137085 608.716370,269.026215 
	C628.656311,270.640228 643.414856,280.792816 651.385498,298.937195 
	C659.314697,316.987152 657.377502,334.910217 645.043640,350.667236 
	C632.428345,366.783844 615.381104,372.242157 595.369995,369.027435 
	C594.220154,368.842712 593.063965,368.697632 591.500061,368.457336 
z"/>
<path fill="#D70923" opacity="1.000000" stroke="none" 
	d="
M337.229401,673.028687 
	C297.587372,669.751953 265.706848,641.682190 257.709381,603.165222 
	C252.243393,576.840149 253.505859,551.010681 266.075653,526.791565 
	C280.227814,499.523529 302.970184,484.274994 333.660278,481.114655 
	C353.559692,479.065460 372.950623,480.647156 390.899994,490.250366 
	C413.879639,502.544891 428.267578,521.697693 434.754578,546.874573 
	C440.237335,568.153992 440.146637,589.529846 434.205902,610.557739 
	C425.899689,639.958435 407.562195,660.126770 377.704742,669.109619 
	C364.567596,673.061951 351.233246,673.754639 337.229401,673.028687 
z"/>
</svg>